<svg width="642" height="132" viewBox="0 0 642 132" fill="none" xmlns="http://www.w3.org/2000/svg">
<path d="M49.1211 78.9473H20.9961V108H6.34766V36.9062H52.6367V48.7715H20.9961V67.1309H49.1211V78.9473ZM80.709 108H66.0605V36.9062H80.709V108ZM154.582 99.0156C151.945 102.173 148.218 104.631 143.4 106.389C138.583 108.114 133.244 108.977 127.385 108.977C121.232 108.977 115.829 107.642 111.174 104.973C106.551 102.271 102.971 98.3646 100.432 93.2539C97.9251 88.1432 96.6393 82.1374 96.5742 75.2363V70.4023C96.5742 63.306 97.7624 57.1699 100.139 51.9941C102.548 46.7858 105.998 42.8145 110.49 40.0801C115.015 37.3132 120.305 35.9297 126.359 35.9297C134.79 35.9297 141.382 37.9479 146.135 41.9844C150.887 45.9883 153.703 51.8314 154.582 59.5137H140.324C139.673 55.4447 138.225 52.4661 135.979 50.5781C133.765 48.6901 130.705 47.7461 126.799 47.7461C121.818 47.7461 118.026 49.6178 115.422 53.3613C112.818 57.1048 111.499 62.6712 111.467 70.0605V74.6016C111.467 82.056 112.883 87.6875 115.715 91.4961C118.547 95.3047 122.697 97.209 128.166 97.209C133.667 97.209 137.59 96.0371 139.934 93.6934V81.4375H126.604V70.6465H154.582V99.0156ZM189.637 36.9062L207.898 88.4688L226.062 36.9062H245.301V108H230.604V88.5664L232.068 55.0215L212.879 108H202.82L183.68 55.0703L185.145 88.5664V108H170.496V36.9062H189.637ZM303.109 93.3516H277.426L272.543 108H256.967L283.432 36.9062H297.006L323.617 108H308.041L303.109 93.3516ZM281.381 81.4863H299.154L290.219 54.875L281.381 81.4863ZM377.809 96.2324H408.912V108H363.16V36.9062H377.809V96.2324ZM565.879 108H551.23L522.715 61.2227V108H508.066V36.9062H522.715L551.279 83.7812V36.9062H565.879V108ZM582.672 108V36.9062H604.547C610.797 36.9062 616.38 38.3223 621.295 41.1543C626.243 43.9538 630.1 47.9577 632.867 53.166C635.634 58.3418 637.018 64.2337 637.018 70.8418V74.1133C637.018 80.7214 635.65 86.597 632.916 91.7402C630.214 96.8835 626.389 100.871 621.441 103.703C616.493 106.535 610.911 107.967 604.693 108H582.672ZM597.32 48.7715V96.2324H604.4C610.13 96.2324 614.508 94.3607 617.535 90.6172C620.562 86.8737 622.109 81.5189 622.174 74.5527V70.793C622.174 63.5664 620.676 58.0977 617.682 54.3867C614.687 50.6432 610.309 48.7715 604.547 48.7715H597.32Z" fill="white"/>
<rect x="6" width="100" height="25" rx="12.5" fill="#E837B5"/>
<path d="M56 0H93.5C100.404 0 106 5.59644 106 12.5V12.5C106 19.4036 100.404 25 93.5 25H56V0Z" fill="#BE40E2"/>
<path d="M457.5 37L494.306 108.25H420.694L457.5 37Z" fill="#49B8FF"/>
</svg>
