<svg width="61" height="61" viewBox="0 0 61 61" fill="none" xmlns="http://www.w3.org/2000/svg">
<g clip-path="url(#clip0_580_218)">
<path d="M55.903 49.4347C55.4506 52.5529 53.1882 55.2512 50.0209 56.4503C48.4693 57.0492 46.7888 57.2297 45.1079 57.0492C43.4921 56.8697 41.8759 56.3899 40.1954 55.4914C37.868 54.291 35.5409 52.4332 32.8262 49.6749C37.0927 44.8184 39.6777 40.3814 40.6477 36.4249C41.1003 34.566 41.1648 32.8871 40.9712 31.3279C40.7129 29.8293 40.1309 28.4497 39.2255 27.2508C37.2216 24.5529 33.8607 22.9938 30.1114 22.9938C26.3621 22.9938 23.0009 24.6129 20.997 27.2508C20.0916 28.4499 19.5106 29.8293 19.2516 31.3279C18.9934 32.8871 19.0578 34.6258 19.5751 36.4251C20.5444 40.3812 23.1945 44.8784 27.3966 49.734C24.7463 52.4929 22.3545 54.3514 20.0272 55.5508C18.3467 56.4503 16.7305 56.9301 15.1147 57.1092C13.449 57.2818 11.763 57.0763 10.2019 56.5103C7.03437 55.3112 4.77242 52.6121 4.31961 49.4945C4.12601 47.996 4.25515 46.4973 4.90156 44.8184C5.09515 44.2184 5.41882 43.6199 5.74156 42.8999C6.19437 41.941 6.71164 40.921 7.2282 39.9014L7.29336 39.7823C11.753 30.8482 16.5369 21.7349 21.5143 12.8616L21.7081 12.5012C22.2254 11.6027 22.7419 10.6438 23.2597 9.74403C23.7765 8.78447 24.3582 7.8849 25.0691 7.1049C26.4266 5.66577 28.2366 4.88643 30.2405 4.88643C32.2444 4.88643 34.0543 5.66577 35.4118 7.10512C36.1229 7.8849 36.7046 8.78447 37.2219 9.74425C37.7391 10.6438 38.2557 11.6027 38.773 12.5012L38.9675 12.8616C43.8798 21.7947 48.6636 30.9079 53.1237 39.8421V39.9014C53.641 40.861 54.0931 41.941 54.6104 42.8999C54.9338 43.6199 55.2568 44.2182 55.4504 44.8184C55.9676 46.3771 56.1615 47.8766 55.9032 49.4347H55.903ZM30.1114 46.6164C26.6211 42.5399 24.3582 38.7023 23.5827 35.4656C23.2599 34.0862 23.1945 32.8871 23.3891 31.8077C23.518 30.8482 23.9063 30.0084 24.4227 29.2884C25.651 27.671 27.7194 26.6499 30.1114 26.6499C32.5032 26.6499 34.6362 27.6101 35.7997 29.2884C36.3165 30.0084 36.7046 30.8482 36.8337 31.8077C37.0276 32.8871 36.9629 34.146 36.6399 35.4656C35.8644 38.6429 33.6017 42.4801 30.1114 46.6164ZM59.2644 43.499C58.9414 42.7795 58.618 42.0003 58.295 41.3408C57.7777 40.2621 57.2605 39.2421 56.8079 38.2825L56.7432 38.2232C52.2835 29.229 47.4997 20.1158 42.4576 11.1236L42.264 10.7627C41.7467 9.86338 41.2294 8.90382 40.7129 7.94469C40.066 6.8649 39.4194 5.72686 38.3855 4.64686C36.3162 2.2486 33.3434 0.929688 30.1756 0.929688C26.9436 0.929688 24.035 2.2486 21.9015 4.52751C20.9323 5.60643 20.2212 6.74556 19.5748 7.82556C19.0576 8.78447 18.5403 9.74403 18.0233 10.6438L17.8294 11.0025C12.8525 19.996 8.00421 29.1099 3.54382 38.1034L3.47937 38.2232C3.02656 39.1821 2.50929 40.201 1.99203 41.281C1.64622 41.9916 1.32303 42.7115 1.02289 43.4397C0.182184 45.6575 -0.0760972 47.7564 0.246872 49.9145C0.958434 54.4114 4.19046 58.1893 8.65062 59.8675C10.3309 60.5275 12.0762 60.8271 13.8866 60.8271C14.4036 60.8271 15.05 60.7671 15.5673 60.7066C17.7001 60.4664 19.8978 59.8082 22.0306 58.6684C24.6814 57.2895 27.2026 55.3112 30.0465 52.4332C32.8904 55.3112 35.4762 57.2897 38.0619 58.6684C40.1954 59.8082 42.3929 60.4664 44.5259 60.7066C45.0432 60.7671 45.6896 60.8271 46.2066 60.8271C48.0167 60.8271 49.8263 60.5275 51.4426 59.8675C55.9674 58.1893 59.1348 54.3516 59.8459 49.9145C60.3631 47.8156 60.1041 45.7182 59.2641 43.4988L59.2644 43.499Z" fill="#E0565B"/>
</g>
<defs>
<clipPath id="clip0_580_218">
<rect width="60" height="60" fill="white" transform="translate(0.112305 0.929688)"/>
</clipPath>
</defs>
</svg>
