<svg width="32" height="32" viewBox="0 0 32 32" fill="none" xmlns="http://www.w3.org/2000/svg">
<path d="M13.296 14.288C14.928 16.912 14.688 20 12.736 21.248C10.784 22.464 7.872 21.328 6.224 18.704C4.592 16.08 4.848 12.96 6.8 11.744C8.752 10.528 11.664 11.664 13.296 14.288ZM16 25.2C19.2 25.2 20 24 20 24C20 24 19.2 27.2 16 27.2C12.8 27.2 12 24.048 12 24C12 24 12.8 25.2 16 25.2ZM25.2 11.744C27.152 12.96 27.408 16.08 25.776 18.704C24.128 21.328 21.216 22.464 19.264 21.248C17.312 20 17.072 16.912 18.704 14.288C20.336 11.664 23.248 10.528 25.2 11.744ZM16 28.8C20 28.8 28.8 20.576 28.8 14.4C28.8 8.224 23.056 3.2 16 3.2C8.944 3.2 3.2 8.224 3.2 14.4C3.2 20.576 12 28.8 16 28.8ZM16 0C24.8 0 32 6.464 32 14.4C32 20.928 22.912 32 16 32C9.088 32 0 20.928 0 14.4C0 6.464 7.2 0 16 0Z" fill="#02E4C0"/>
</svg>
