<svg width="60" height="70" viewBox="0 0 60 70" fill="none" xmlns="http://www.w3.org/2000/svg">
<path d="M18.3724 0.199313C18.029 0.201508 17.6915 0.288546 17.3904 0.452569C16.4018 0.99629 16.0392 2.25652 16.587 3.23675L18.8189 7.23583C13.4414 10.537 9.8782 16.1761 9.8782 22.6121V23.8079C8.84531 22.6289 7.32727 21.8844 5.63109 21.8844C2.52328 21.8844 0 24.3882 0 27.4716V44.683C0 47.7663 2.52352 50.2703 5.63109 50.2703C7.32727 50.2703 8.84531 49.5256 9.87797 48.3465V50.7575C9.87797 54.0079 12.5585 56.6675 15.8344 56.6675H17.3456V64.324C17.3456 67.4077 19.8691 69.9114 22.9767 69.9114C26.0843 69.9114 28.6076 67.4075 28.6076 64.324V56.6675H31.2223V64.324C31.2223 67.4077 33.7458 69.9114 36.8534 69.9114C39.9609 69.9114 42.4842 67.4075 42.4842 64.324V56.6675H43.9957C47.2713 56.6675 49.9519 54.0079 49.9519 50.7575V48.3465C50.9845 49.5256 52.5028 50.2703 54.199 50.2703C57.3066 50.2703 59.8298 47.7663 59.8298 44.683V27.4716C59.8298 24.3882 57.3066 21.8844 54.199 21.8844C52.5028 21.8844 50.9845 22.6289 49.9519 23.8079V22.8144V22.7575C49.9523 22.697 49.9519 22.6486 49.9519 22.6121C49.9519 16.1772 46.3805 10.5437 41.0048 7.24234L43.2431 3.23675C43.7906 2.25652 43.4283 0.99629 42.4397 0.452569C42.1386 0.288546 41.8011 0.201508 41.4577 0.199313C40.7276 0.192336 40.0111 0.574197 39.6338 1.24978L37.2933 5.44513C35.0048 4.60722 32.5148 4.14792 29.9152 4.14792C27.3178 4.14792 24.8231 4.60234 22.5366 5.43862L20.1963 1.24978C19.8188 0.574197 19.1025 0.192801 18.3724 0.199313Z" fill="white"/>
<path d="M5.63094 23.3398C3.31203 23.3398 1.4668 25.1708 1.4668 27.4717V44.6831C1.4668 46.984 3.31203 48.815 5.63094 48.815C7.94984 48.815 9.79531 46.984 9.79531 44.6831V27.4717C9.79531 25.1708 7.94984 23.3398 5.63094 23.3398ZM54.1991 23.3398C51.8799 23.3398 50.0347 25.1708 50.0347 27.4717V44.6831C50.0347 46.984 51.8799 48.815 54.1991 48.815C56.518 48.815 58.3632 46.984 58.3632 44.6831V27.4717C58.3632 25.1708 56.518 23.3398 54.1991 23.3398Z" fill="#A4C639"/>
<path d="M22.9769 42.981C20.658 42.981 18.8125 44.8119 18.8125 47.1131V64.3242C18.8125 66.6251 20.658 68.4561 22.9769 68.4561C25.2958 68.4561 27.141 66.6251 27.141 64.3242V47.1131C27.141 44.8119 25.2958 42.981 22.9769 42.981ZM36.8535 42.981C34.5344 42.981 32.6891 44.8119 32.6891 47.1131V64.3242C32.6891 66.6251 34.5344 68.4561 36.8535 68.4561C39.1724 68.4561 41.0177 66.6251 41.0177 64.3242V47.1131C41.0177 44.8119 39.1724 42.981 36.8535 42.981Z" fill="#A4C639"/>
<path d="M18.3849 1.65535C18.2864 1.65653 18.1898 1.68263 18.1043 1.73117C17.8074 1.89442 17.7099 2.23303 17.8747 2.52838L20.8083 7.78675C15.1646 10.7007 11.3522 16.2381 11.3447 22.5935H48.485C48.4772 16.2381 44.6651 10.7005 39.0214 7.78675L41.9548 2.52861C42.1198 2.23326 42.0221 1.89442 41.7251 1.73117C41.6396 1.6826 41.5431 1.6565 41.4446 1.65535C41.2336 1.65303 41.0342 1.75768 40.9217 1.95908L37.9498 7.27419C35.5189 6.20442 32.7922 5.60373 29.9147 5.60373C27.0373 5.60373 24.3108 6.20419 21.8797 7.27419L18.9078 1.95908C18.8571 1.86578 18.7815 1.7881 18.6894 1.73453C18.5972 1.68097 18.4919 1.65358 18.3851 1.65535H18.3849ZM11.3447 24.0488V50.7581C11.3435 51.3435 11.4587 51.9233 11.6839 52.4643C11.9091 53.0053 12.2397 53.4969 12.6569 53.9108C13.074 54.3246 13.5694 54.6527 14.1147 54.8761C14.6599 55.0995 15.2443 55.2138 15.8342 55.2125H43.9955C44.5854 55.2138 45.1698 55.0995 45.7151 54.8761C46.2604 54.6527 46.7558 54.3246 47.1729 53.9107C47.5901 53.4968 47.9207 53.0052 48.1459 52.4641C48.371 51.9231 48.4863 51.3433 48.485 50.7579V24.0491H11.3447V24.0488Z" fill="#A4C639"/>
<path d="M21.3436 12.7729C20.4959 12.7729 19.7939 13.4692 19.7939 14.3104C19.7939 15.1518 20.4959 15.8481 21.3436 15.8481C22.1916 15.8481 22.8933 15.1518 22.8933 14.3104C22.8933 13.4692 22.1916 12.7729 21.3436 12.7729ZM38.4853 12.7729C37.6374 12.7729 36.9357 13.4692 36.9357 14.3104C36.9357 15.1518 37.6374 15.8481 38.4853 15.8481C39.3331 15.8481 40.035 15.1518 40.035 14.3104C40.035 13.4692 39.3331 12.7729 38.4853 12.7729Z" fill="white"/>
</svg>
