<svg width="60" height="61" viewBox="0 0 60 61" fill="none" xmlns="http://www.w3.org/2000/svg">
<g clip-path="url(#clip0_580_198)">
<path opacity="0.5" d="M29.9277 9.46249V26.5081L44.8919 17.9677V0.921875L29.9277 9.46249Z" fill="#13A049"/>
<path opacity="0.5" d="M29.9278 9.46249L14.9639 0.921875V18.0031L29.9278 26.5437V9.46249Z" fill="#A2CC39"/>
<path opacity="0.9" d="M44.8922 0.921875L29.928 9.46249L14.9641 0.921875L0 9.46249L29.928 26.5437L59.8383 9.46249L44.8922 0.921875Z" fill="url(#paint0_linear_580_198)"/>
<path d="M29.928 26.5436L0 9.4624V26.5436L14.9641 35.0843V52.1479L29.928 60.6885L44.8922 52.1479V35.0843L59.8383 26.5436V9.4624L29.928 26.5436Z" fill="url(#paint1_linear_580_198)"/>
<path d="M29.9277 26.5436V60.6885L44.8919 52.1479V35.0843L59.838 26.5436V9.4624L29.9277 26.5436Z" fill="url(#paint2_linear_580_198)"/>
<path opacity="0.05" d="M29.9277 43.6074V60.6886L44.8919 52.148L29.9277 43.6074Z" fill="#231F20"/>
<path opacity="0.1" d="M29.9278 60.7238V43.6426L14.9639 52.1832L29.9278 60.7238Z" fill="#231F20"/>
<path opacity="0.05" d="M14.9641 18.0029L0 26.5435L14.9641 35.0842L29.928 26.5435L14.9641 18.0029Z" fill="#231F20"/>
<path opacity="0.05" d="M44.8919 18.0029L29.9277 26.5435L44.8919 35.0842L59.838 26.5435L44.8919 18.0029Z" fill="#231F20"/>
</g>
<defs>
<linearGradient id="paint0_linear_580_198" x1="59.8455" y1="13.7305" x2="0" y2="13.7305" gradientUnits="userSpaceOnUse">
<stop stop-color="#37BDA6"/>
<stop offset="1" stop-color="#8AD3B8"/>
</linearGradient>
<linearGradient id="paint1_linear_580_198" x1="59.8455" y1="35.0744" x2="0" y2="35.0744" gradientUnits="userSpaceOnUse">
<stop offset="0.5" stop-color="#4BB6AD"/>
<stop offset="1" stop-color="#78BBC1"/>
</linearGradient>
<linearGradient id="paint2_linear_580_198" x1="29.9224" y1="35.0744" x2="59.8448" y2="35.0744" gradientUnits="userSpaceOnUse">
<stop stop-color="#4379A7"/>
<stop offset="1" stop-color="#7CC9B8"/>
</linearGradient>
<clipPath id="clip0_580_198">
<rect width="60" height="60" fill="white" transform="translate(0 0.921875)"/>
</clipPath>
</defs>
</svg>
