<svg width="60" height="61" viewBox="0 0 60 61" fill="none" xmlns="http://www.w3.org/2000/svg">
<g clip-path="url(#clip0_580_195)">
<path d="M13.14 0.273438H46.86C54.1172 0.273438 60 6.15625 60 13.4134V47.1334C60 54.3906 54.1172 60.2734 46.86 60.2734H13.14C5.88281 60.2734 0 54.3906 0 47.1334V13.4134C0 6.15625 5.88281 0.273438 13.14 0.273438Z" fill="url(#paint0_linear_580_195)"/>
<path d="M19.2288 43.8224L19.2344 43.8243L17.183 47.3774C16.4341 48.6744 14.7757 49.1188 13.4787 48.37C12.1819 47.6212 11.7372 45.9627 12.4861 44.6657L13.9973 42.0482L14.1424 41.7969C14.4014 41.4248 15.0405 40.7821 16.319 40.903C16.319 40.903 19.3277 41.2295 19.5455 42.7933C19.5455 42.7933 19.575 43.3077 19.2288 43.8224ZM48.3248 34.7474H41.9278C41.4921 34.7181 41.302 34.5625 41.227 34.472L41.2223 34.4638L34.3746 22.603L34.3657 22.6089L33.9551 22.0202C33.2819 20.9908 32.2132 23.6233 32.2132 23.6233C30.937 26.5567 32.3944 29.8916 32.9023 30.8997L42.4137 47.3739C43.1623 48.6707 44.8207 49.1153 46.118 48.3662C47.4148 47.6174 47.8594 45.959 47.1103 44.6619L44.7321 40.5426C44.6859 40.4427 44.6058 40.1718 45.0935 40.1706H48.3248C49.8225 40.1706 51.0366 38.9566 51.0366 37.4589C51.0366 35.9612 49.8225 34.7472 48.3248 34.7472V34.7474ZM35.8997 38.4337C35.8997 38.4337 36.2412 40.1706 34.92 40.1706H11.2718C9.77412 40.1706 8.56006 38.9566 8.56006 37.4589C8.56006 35.9612 9.77412 34.7472 11.2718 34.7472H17.3515C18.333 34.6905 18.5655 34.1237 18.5655 34.1237L18.5712 34.1266L26.5071 20.3809L26.5048 20.3805C26.6494 20.1149 26.5289 19.8639 26.508 19.8243L23.887 15.2847C23.1382 13.9879 23.5826 12.3292 24.8796 11.5806C26.1766 10.8318 27.8351 11.2759 28.5839 12.573L29.7994 14.6784L31.0127 12.5767C31.7616 11.2799 33.42 10.8353 34.717 11.5844C36.0141 12.3332 36.4584 13.9914 35.7096 15.2884L24.6663 34.4158C24.618 34.5323 24.6033 34.7151 24.9626 34.7472H31.5635L31.5649 34.8116C31.5649 34.8116 35.3801 34.8709 35.8997 38.4337Z" fill="white"/>
</g>
<defs>
<linearGradient id="paint0_linear_580_195" x1="30" y1="0.273438" x2="30" y2="60.2734" gradientUnits="userSpaceOnUse">
<stop stop-color="#17C9FB"/>
<stop offset="1" stop-color="#1A74E8"/>
</linearGradient>
<clipPath id="clip0_580_195">
<rect width="60" height="60" fill="white" transform="translate(0 0.273438)"/>
</clipPath>
</defs>
</svg>
