<svg width="70" height="61" viewBox="0 0 70 61" fill="none" xmlns="http://www.w3.org/2000/svg">
<g clip-path="url(#clip0_580_214)">
<path d="M35.0821 0.273438C16.3134 0.273438 1.60902 24.8734 0.217773 45.6509C6.10762 56.1813 20.3108 60.1396 35.0827 60.1396C49.8535 60.1396 64.0575 56.1813 69.9443 45.6506C68.5528 24.8734 53.8503 0.273438 35.0824 0.273438" fill="#B6DEFF"/>
<path d="M65.0402 40.7017C65.0402 40.7017 60.8949 31.469 56.6815 26.0825C52.4651 20.6938 47.316 14.8262 44.2716 14.8262C41.2287 14.8262 32.7227 30.3411 28.8204 30.3411C24.9174 30.3411 22.889 23.3079 18.0905 23.3079C13.29 23.3079 5.66328 40.2681 5.66328 40.2681L5.14648 43.1434C5.14648 43.1434 7.79609 55.245 35.5155 55.245C63.2361 55.245 65.4515 43.3419 65.4515 43.3419L65.0405 40.7014" fill="#66CC66"/>
<path d="M29.2541 36.962C24.9491 36.962 22.7421 32.5863 21.5456 29.8851C20.4696 27.4519 20.2834 23.6102 17.2305 23.5026C17.5304 23.3801 17.8192 23.3077 18.0899 23.3077C22.8884 23.3077 24.9168 30.3409 28.8198 30.3409C32.7221 30.3409 41.2282 14.8257 44.271 14.8257C44.8444 14.8257 45.4902 15.0341 46.191 15.4048C45.6726 15.3344 45.0079 15.3834 44.4957 15.9127C43.5122 16.9262 34.5836 36.962 29.2541 36.962Z" fill="#17AD49"/>
</g>
<defs>
<clipPath id="clip0_580_214">
<rect width="70" height="60" fill="white" transform="translate(0 0.273438)"/>
</clipPath>
</defs>
</svg>
