<svg width="151" height="61" viewBox="0 0 151 61" fill="none" xmlns="http://www.w3.org/2000/svg">
<g clip-path="url(#clip0_580_220)">
<path d="M0.112305 0.273438V4.37451H29.3096V0.273438H0.112305ZM33.4463 0.273438V4.37451H75.0537C75.0537 4.37451 70.8036 0.273438 65.1748 0.273438H33.4463ZM83.2158 0.273438V4.37451H108.388L106.894 0.273438H83.2158ZM126.435 0.273438L124.94 4.37451H149.884V0.273438H126.435ZM0.112305 8.24905V12.3501H29.3096V8.24905H0.112305ZM33.4463 8.2549V12.3501H79.8818C79.8818 12.3501 79.3396 9.19383 78.3936 8.2549H33.4463ZM83.2158 8.2549V12.3501H111.147L109.765 8.2549H83.2158ZM123.446 8.2549L122.063 12.3501H149.884V8.2549H123.446ZM8.50293 16.2247V20.331H21.1475V16.2247H8.50293ZM41.8369 16.2247V20.331H54.4814V16.2247H41.8369ZM66.7803 16.2247V20.331H79.4248C79.4248 20.331 80.2275 18.1622 80.2275 16.2244H66.7803V16.2247ZM91.6064 16.2247V20.331H114.024L112.53 16.2244H91.6064V16.2247ZM120.692 16.2247L119.192 20.3313H141.722V16.2247H120.692ZM8.50293 24.2061V28.3066H21.1475V24.2061H8.50293ZM41.8369 24.2061V28.3066H74.1338C74.1338 28.3066 76.8355 26.2022 77.6963 24.2055H41.8369V24.2061ZM91.6064 24.2061V28.3066H104.251V26.0237L105.054 28.3066H128.216L129.077 26.0237V28.3066H141.722V24.2061H117.985L116.726 27.68L115.46 24.2061H91.6064ZM8.50293 32.1811V36.2822H21.1475V32.1811H8.50293ZM41.8369 32.1811V36.2822H77.6963C76.8353 34.292 74.1338 32.1811 74.1338 32.1811H41.8369ZM91.6064 32.1811V36.2822H104.251V32.1811H91.6064ZM106.548 32.1811L108.077 36.2822H125.444L126.897 32.1811H106.548ZM129.077 32.1811V36.2822H141.722V32.1811H129.077ZM8.50293 40.1568V44.2578H21.1475V40.1568H8.50293ZM41.8369 40.1568V44.2578H54.4814V40.1568H41.8369ZM66.7803 40.1568V44.2578H80.2275C80.2275 42.3223 79.4248 40.1568 79.4248 40.1568H66.7803ZM91.6064 40.1568V44.2578H104.251V40.1568H91.6064ZM109.419 40.1568L110.901 44.2578H122.544L124.038 40.1568H109.419ZM129.077 40.1568V44.2578H141.722V40.1568H129.077ZM0.34082 48.1327V52.2393H29.5381V48.1324H0.34082V48.1327ZM33.4463 48.1327V52.2393H78.3936C79.3396 51.2989 79.8818 48.1324 79.8818 48.1324H33.4463V48.1327ZM83.4443 48.1327V52.2393H104.251V48.1324H83.4443V48.1327ZM112.296 48.1327L113.819 52.2393H119.743L121.173 48.1324H112.296V48.1327ZM129.077 48.1327V52.2393H150.112V48.1324H129.077V48.1327ZM0.34082 56.1138V60.2149H29.5381V56.1138H0.34082ZM33.4463 56.1138V60.2088H65.1748C70.8036 60.2088 75.0537 56.1135 75.0537 56.1135H33.4463V56.1138ZM83.4443 56.1138V60.2149H104.251V56.1138H83.4443ZM115.185 56.1138L116.649 60.2029L116.901 60.2088L118.39 56.1135H115.185V56.1138ZM129.077 56.1138V60.2149H150.112V56.1138H129.077Z" fill="#1F70C1"/>
</g>
<defs>
<clipPath id="clip0_580_220">
<rect width="150" height="60" fill="white" transform="translate(0.112305 0.273438)"/>
</clipPath>
</defs>
</svg>
