<svg width="0" height="0" class="hidden">
  <symbol fill="none" xmlns="http://www.w3.org/2000/svg" viewBox="0 0 32 32" id="alien">
    <path d="M13.296 14.288C14.928 16.912 14.688 20 12.736 21.248C10.784 22.464 7.872 21.328 6.224 18.704C4.592 16.08 4.848 12.96 6.8 11.744C8.752 10.528 11.664 11.664 13.296 14.288ZM16 25.2C19.2 25.2 20 24 20 24C20 24 19.2 27.2 16 27.2C12.8 27.2 12 24.048 12 24C12 24 12.8 25.2 16 25.2ZM25.2 11.744C27.152 12.96 27.408 16.08 25.776 18.704C24.128 21.328 21.216 22.464 19.264 21.248C17.312 20 17.072 16.912 18.704 14.288C20.336 11.664 23.248 10.528 25.2 11.744ZM16 28.8C20 28.8 28.8 20.576 28.8 14.4C28.8 8.224 23.056 3.2 16 3.2C8.944 3.2 3.2 8.224 3.2 14.4C3.2 20.576 12 28.8 16 28.8ZM16 0C24.8 0 32 6.464 32 14.4C32 20.928 22.912 32 16 32C9.088 32 0 20.928 0 14.4C0 6.464 7.2 0 16 0Z" fill="#02E4C0"></path>
  </symbol>
  <symbol fill="none" xmlns="http://www.w3.org/2000/svg" viewBox="0 0 32 32" id="close">
    <rect x="5" y="24.7988" width="28" height="3" transform="rotate(-45 5 24.7988)" fill="white"></rect>
    <rect x="7.12109" y="5" width="28" height="3" transform="rotate(45 7.12109 5)" fill="white"></rect>
  </symbol>
  <symbol fill="none" xmlns="http://www.w3.org/2000/svg" viewBox="0 0 42 41" id="facebook">
    <path d="M36.2097 4.48291H6.75056C6.0421 4.48291 5.46973 5.05528 5.46973 5.76374V35.2229C5.46973 35.9313 6.0421 36.5037 6.75056 36.5037H36.2097C36.9181 36.5037 37.4905 35.9313 37.4905 35.2229V5.76374C37.4905 5.05528 36.9181 4.48291 36.2097 4.48291ZM32.5113 13.829H29.9536C27.9483 13.829 27.5601 14.7816 27.5601 16.1825V19.2685H32.3472L31.7228 24.0996H27.5601V36.5037H22.5688V24.1036H18.3941V19.2685H22.5688V15.7062C22.5688 11.5715 25.0945 9.31805 28.7849 9.31805C30.554 9.31805 32.071 9.45013 32.5153 9.51017V13.829H32.5113Z" fill="white"></path>
  </symbol>
  <symbol fill="none" xmlns="http://www.w3.org/2000/svg" viewBox="0 0 42 41" id="linkedin">
    <path d="M36.1989 4.48291H6.73982C6.03136 4.48291 5.45898 5.05528 5.45898 5.76374V35.2229C5.45898 35.9313 6.03136 36.5037 6.73982 36.5037H36.1989C36.9074 36.5037 37.4798 35.9313 37.4798 35.2229V5.76374C37.4798 5.05528 36.9074 4.48291 36.1989 4.48291ZM14.9571 31.7686H10.2061V16.4867H14.9571V31.7686ZM12.5836 14.3973C12.039 14.3973 11.5065 14.2358 11.0537 13.9332C10.6008 13.6307 10.2479 13.2006 10.0394 12.6974C9.83101 12.1942 9.77648 11.6405 9.88273 11.1063C9.98899 10.5721 10.2513 10.0815 10.6364 9.69634C11.0215 9.31121 11.5122 9.04894 12.0464 8.94268C12.5806 8.83643 13.1342 8.89096 13.6374 9.09939C14.1406 9.30782 14.5707 9.66078 14.8733 10.1136C15.1759 10.5665 15.3374 11.0989 15.3374 11.6436C15.3334 13.1645 14.1006 14.3973 12.5836 14.3973ZM32.7447 31.7686H27.9976V24.3358C27.9976 22.5626 27.9656 20.2852 25.528 20.2852C23.0584 20.2852 22.6782 22.2144 22.6782 24.2077V31.7686H17.9351V16.4867H22.49V18.5761H22.5541C23.1865 17.3753 24.7355 16.1065 27.049 16.1065C31.8601 16.1065 32.7447 19.2725 32.7447 23.3872V31.7686V31.7686Z" fill="white"></path>
  </symbol>
  <symbol fill="none" xmlns="http://www.w3.org/2000/svg" viewBox="0 0 33 39" id="map">
    <path d="M16.6669 23.6337C21.0789 23.6337 24.6668 20.225 24.6668 16.0336C24.6668 11.8422 21.0789 8.43356 16.6669 8.43356C12.255 8.43356 8.667 11.8422 8.667 16.0336C8.667 20.225 12.255 23.6337 16.6669 23.6337ZM16.6669 12.2336C18.8729 12.2336 20.6669 13.9379 20.6669 16.0336C20.6669 18.1293 18.8729 19.8336 16.6669 19.8336C14.4609 19.8336 12.667 18.1293 12.667 16.0336C12.667 13.9379 14.4609 12.2336 16.6669 12.2336Z" fill="white"></path>
    <path d="M15.507 38.4804C15.8455 38.71 16.251 38.8335 16.667 38.8335C17.0829 38.8335 17.4885 38.71 17.827 38.4804C18.435 38.0719 32.7248 28.2697 32.6668 16.0336C32.6668 7.65265 25.4889 0.833496 16.667 0.833496C7.84509 0.833496 0.667168 7.65265 0.667168 16.0241C0.609169 28.2697 14.899 38.0719 15.507 38.4804ZM16.667 4.63353C23.2849 4.63353 28.6669 9.74647 28.6669 16.0431C28.7089 24.4754 19.891 32.0469 16.667 34.5303C13.445 32.045 4.62512 24.4716 4.66712 16.0336C4.66712 9.74647 10.0491 4.63353 16.667 4.63353Z" fill="white"></path>
  </symbol>
  <symbol fill="none" xmlns="http://www.w3.org/2000/svg" viewBox="0 0 32 32" id="menu">
    <rect x="2" y="5" width="28" height="4" fill="white"></rect>
    <rect x="10" y="14" width="20" height="4" fill="white"></rect>
    <rect x="18" y="23" width="12" height="4" fill="white"></rect>
  </symbol>
  <symbol fill="none" xmlns="http://www.w3.org/2000/svg" viewBox="0 0 35 36" id="phone">
    <path d="M23.3337 1.9585H11.667C9.24616 1.9585 7.29199 3.91266 7.29199 6.3335V29.6668C7.29199 32.0877 9.24616 34.0418 11.667 34.0418H23.3337C25.7545 34.0418 27.7087 32.0877 27.7087 29.6668V6.3335C27.7087 3.91266 25.7545 1.9585 23.3337 1.9585ZM20.417 31.1252H14.5837V29.6668H20.417V31.1252ZM25.1566 26.7502H9.84408V6.3335H25.1566V26.7502Z" fill="white"></path>
  </symbol>
  <symbol fill="none" xmlns="http://www.w3.org/2000/svg" viewBox="0 0 32 32" id="spoon_and_fork">
    <path d="M8.97 18.4021L13.7062 13.2998L3.34677 2.15751C2.54345 1.2921 1.15438 1.52648 0.652308 2.64431C-0.535934 5.33071 -0.100803 8.63011 1.9577 10.8658L8.97 18.4021ZM20.3169 15.1388C22.8774 16.4189 26.4756 15.5174 29.1366 12.6507C32.3332 9.20705 32.9524 4.26697 30.4922 1.61663C28.0488 -1.01568 23.4632 -0.366618 20.2499 3.07702C17.5889 5.94371 16.7521 9.82006 17.9404 12.5786L2.77775 28.9133C2.46483 29.2504 2.28903 29.7076 2.28903 30.1844C2.28903 30.6611 2.46483 31.1184 2.77775 31.4555C3.09068 31.7926 3.51509 31.982 3.95763 31.982C4.40017 31.982 4.82458 31.7926 5.1375 31.4555L15.497 20.3313L25.8397 31.4735C25.9946 31.6404 26.1786 31.7728 26.381 31.8632C26.5835 31.9535 26.8004 32 27.0196 32C27.2387 32 27.4557 31.9535 27.6581 31.8632C27.8605 31.7728 28.0445 31.6404 28.1994 31.4735C28.3544 31.3066 28.4773 31.1084 28.5611 30.8903C28.645 30.6722 28.6881 30.4385 28.6881 30.2024C28.6881 29.9664 28.645 29.7326 28.5611 29.5145C28.4773 29.2964 28.3544 29.0983 28.1994 28.9313L17.8567 17.7891L20.3169 15.1388Z" fill="#02E4C0"></path>
  </symbol>
  <symbol fill="none" xmlns="http://www.w3.org/2000/svg" viewBox="0 0 32 15" id="infinite">
    <path d="M24.8 3.14878e-05C22.88 3.14878e-05 21.0667 0.771813 19.7733 2.10865L10.4 10.7085C9.54667 11.5905 8.41333 12.0729 7.2 12.0729C4.70667 12.0729 2.66667 9.99185 2.66667 7.41465C2.66667 4.83745 4.70667 2.7564 7.2 2.7564C8.41333 2.7564 9.54667 3.23876 10.4533 4.17592L11.96 5.5541L14 3.70734L12.2933 2.17756C11.6256 1.48479 10.8317 0.935658 9.9575 0.561903C9.08328 0.188148 8.14605 -0.00282092 7.2 3.14878e-05C3.22667 3.14878e-05 0 3.33523 0 7.41465C0 11.4941 3.22667 14.8293 7.2 14.8293C9.12 14.8293 10.9333 14.0575 12.2267 12.7207L21.6 4.1208C22.4533 3.23876 23.5867 2.7564 24.8 2.7564C27.2933 2.7564 29.3333 4.83745 29.3333 7.41465C29.3333 9.99185 27.2933 12.0729 24.8 12.0729C23.6 12.0729 22.4533 11.5905 21.5467 10.6534L20 9.26141L18 11.1082L19.7067 12.6517C20.3762 13.341 21.1707 13.887 22.0447 14.2583C22.9187 14.6296 23.8551 14.8189 24.8 14.8155C28.7733 14.8155 32 11.4941 32 7.41465C32 3.2801 28.7733 3.14878e-05 24.8 3.14878e-05Z" fill="#02E4C0"></path>
  </symbol>
  <symbol fill="none" xmlns="http://www.w3.org/2000/svg" viewBox="0 0 35 29" id="twitter">
    <path d="M34.1445 4.17846C32.9197 4.7068 31.5868 5.08705 30.2139 5.23514C31.6393 4.38834 32.7067 3.05052 33.2159 1.4727C31.8783 2.26837 30.4131 2.82631 28.8851 3.12177C28.2464 2.43903 27.474 1.89514 26.616 1.52396C25.758 1.15279 24.8327 0.962307 23.8978 0.964372C20.1154 0.964372 17.0734 4.03036 17.0734 7.7928C17.0734 8.32115 17.1374 8.84949 17.2415 9.35782C11.5778 9.06163 6.52656 6.35587 3.16838 2.21318C2.55648 3.25832 2.23583 4.44834 2.23978 5.65942C2.23978 8.02896 3.44456 10.1183 5.28175 11.3471C4.19906 11.3045 3.14173 11.0069 2.19575 10.4785V10.5626C2.19575 13.8808 4.54127 16.6305 7.6673 17.2629C7.08035 17.4154 6.47655 17.4934 5.87013 17.4951C5.42584 17.4951 5.00557 17.4511 4.58129 17.391C5.44586 20.0968 7.96349 22.0621 10.9614 22.1261C8.61591 23.9633 5.67801 25.044 2.48794 25.044C1.91557 25.044 1.38722 25.024 0.838867 24.9599C3.86483 26.9012 7.45516 28.0219 11.3217 28.0219C23.8738 28.0219 30.7423 17.6232 30.7423 8.59733C30.7423 8.30113 30.7423 8.00494 30.7223 7.70875C32.0511 6.73612 33.2159 5.53134 34.1445 4.17846Z" fill="white"></path>
  </symbol>
</svg>