<svg width="32" height="15" viewBox="0 0 32 15" fill="none" xmlns="http://www.w3.org/2000/svg">
<path d="M24.8 3.14878e-05C22.88 3.14878e-05 21.0667 0.771813 19.7733 2.10865L10.4 10.7085C9.54667 11.5905 8.41333 12.0729 7.2 12.0729C4.70667 12.0729 2.66667 9.99185 2.66667 7.41465C2.66667 4.83745 4.70667 2.7564 7.2 2.7564C8.41333 2.7564 9.54667 3.23876 10.4533 4.17592L11.96 5.5541L14 3.70734L12.2933 2.17756C11.6256 1.48479 10.8317 0.935658 9.9575 0.561903C9.08328 0.188148 8.14605 -0.00282092 7.2 3.14878e-05C3.22667 3.14878e-05 0 3.33523 0 7.41465C0 11.4941 3.22667 14.8293 7.2 14.8293C9.12 14.8293 10.9333 14.0575 12.2267 12.7207L21.6 4.1208C22.4533 3.23876 23.5867 2.7564 24.8 2.7564C27.2933 2.7564 29.3333 4.83745 29.3333 7.41465C29.3333 9.99185 27.2933 12.0729 24.8 12.0729C23.6 12.0729 22.4533 11.5905 21.5467 10.6534L20 9.26141L18 11.1082L19.7067 12.6517C20.3762 13.341 21.1707 13.887 22.0447 14.2583C22.9187 14.6296 23.8551 14.8189 24.8 14.8155C28.7733 14.8155 32 11.4941 32 7.41465C32 3.2801 28.7733 3.14878e-05 24.8 3.14878e-05Z" fill="#02E4C0"/>
</svg>
