<svg width="33" height="39" viewBox="0 0 33 39" fill="none" xmlns="http://www.w3.org/2000/svg">
<path d="M16.6669 23.6337C21.0789 23.6337 24.6668 20.225 24.6668 16.0336C24.6668 11.8422 21.0789 8.43356 16.6669 8.43356C12.255 8.43356 8.667 11.8422 8.667 16.0336C8.667 20.225 12.255 23.6337 16.6669 23.6337ZM16.6669 12.2336C18.8729 12.2336 20.6669 13.9379 20.6669 16.0336C20.6669 18.1293 18.8729 19.8336 16.6669 19.8336C14.4609 19.8336 12.667 18.1293 12.667 16.0336C12.667 13.9379 14.4609 12.2336 16.6669 12.2336Z" fill="white"/>
<path d="M15.507 38.4804C15.8455 38.71 16.251 38.8335 16.667 38.8335C17.0829 38.8335 17.4885 38.71 17.827 38.4804C18.435 38.0719 32.7248 28.2697 32.6668 16.0336C32.6668 7.65265 25.4889 0.833496 16.667 0.833496C7.84509 0.833496 0.667168 7.65265 0.667168 16.0241C0.609169 28.2697 14.899 38.0719 15.507 38.4804ZM16.667 4.63353C23.2849 4.63353 28.6669 9.74647 28.6669 16.0431C28.7089 24.4754 19.891 32.0469 16.667 34.5303C13.445 32.045 4.62512 24.4716 4.66712 16.0336C4.66712 9.74647 10.0491 4.63353 16.667 4.63353Z" fill="white"/>
</svg>
