<svg width="32" height="32" viewBox="0 0 32 32" fill="none" xmlns="http://www.w3.org/2000/svg">
<path d="M8.97 18.4021L13.7062 13.2998L3.34677 2.15751C2.54345 1.2921 1.15438 1.52648 0.652308 2.64431C-0.535934 5.33071 -0.100803 8.63011 1.9577 10.8658L8.97 18.4021ZM20.3169 15.1388C22.8774 16.4189 26.4756 15.5174 29.1366 12.6507C32.3332 9.20705 32.9524 4.26697 30.4922 1.61663C28.0488 -1.01568 23.4632 -0.366618 20.2499 3.07702C17.5889 5.94371 16.7521 9.82006 17.9404 12.5786L2.77775 28.9133C2.46483 29.2504 2.28903 29.7076 2.28903 30.1844C2.28903 30.6611 2.46483 31.1184 2.77775 31.4555C3.09068 31.7926 3.51509 31.982 3.95763 31.982C4.40017 31.982 4.82458 31.7926 5.1375 31.4555L15.497 20.3313L25.8397 31.4735C25.9946 31.6404 26.1786 31.7728 26.381 31.8632C26.5835 31.9535 26.8004 32 27.0196 32C27.2387 32 27.4557 31.9535 27.6581 31.8632C27.8605 31.7728 28.0445 31.6404 28.1994 31.4735C28.3544 31.3066 28.4773 31.1084 28.5611 30.8903C28.645 30.6722 28.6881 30.4385 28.6881 30.2024C28.6881 29.9664 28.645 29.7326 28.5611 29.5145C28.4773 29.2964 28.3544 29.0983 28.1994 28.9313L17.8567 17.7891L20.3169 15.1388Z" fill="#02E4C0"/>
</svg>
